<?xml version="1.0" standalone="no"?>
<!DOCTYPE svg PUBLIC "-//W3C//DTD SVG 20010904//EN"
 "http://www.w3.org/TR/2001/REC-SVG-20010904/DTD/svg10.dtd">
<svg version="1.0" xmlns="http://www.w3.org/2000/svg"
 width="152.000000pt" height="152.000000pt" viewBox="0 0 152.000000 152.000000"
 preserveAspectRatio="xMidYMid meet">
<metadata>
Created by potrace 1.11, written by Peter Selinger 2001-2013
</metadata>
<g transform="translate(0.000000,152.000000) scale(0.100000,-0.100000)"
fill="#000000" stroke="none">
<path d="M752 1488 l37 -33 -14 -40 c-23 -64 -19 -69 31 -34 l46 31 49 -31
c27 -16 49 -27 49 -22 0 4 -6 29 -14 54 l-14 47 36 30 37 30 -140 0 -140 0 37
-32z"/>
<path d="M141 1348 c-6 -16 -15 -39 -21 -53 -8 -21 -16 -25 -52 -26 -24 -1
-46 -1 -50 0 -19 3 -5 -20 28 -45 38 -29 40 -42 17 -123 -6 -24 -5 -23 41 8
l47 33 47 -31 c25 -16 47 -29 49 -28 1 2 -4 26 -12 55 l-13 52 39 32 c49 40
46 44 -31 47 -24 1 -40 6 -41 14 0 6 -9 30 -19 52 l-18 40 -11 -27z"/>
<path d="M921 1303 c15 -42 53 -104 151 -251 51 -76 87 -140 84 -148 -3 -8
-16 -18 -28 -23 -13 -5 -61 -27 -108 -49 -47 -22 -105 -49 -130 -60 -25 -11
-130 -59 -235 -107 -104 -48 -201 -87 -215 -87 -21 0 -327 105 -418 142 -20 9
-22 7 -22 -19 0 -28 2 -29 200 -96 110 -37 200 -72 200 -79 0 -6 -44 -76 -99
-156 l-98 -145 -59 -2 c-33 0 -78 -2 -101 -2 l-43 -1 0 -50 0 -49 567 4 c313
2 655 4 761 4 164 1 192 3 192 16 0 8 -3 16 -7 16 -12 2 -69 6 -193 13 -63 4
-144 8 -180 11 -36 2 -114 7 -175 10 -265 14 -609 35 -612 39 -1 1 52 56 118
122 l119 120 103 -34 c56 -18 106 -38 111 -42 6 -6 -11 -42 -42 -89 -58 -91
-65 -90 102 -11 l110 52 115 -41 c63 -22 117 -39 118 -37 2 1 -40 20 -93 42
-52 21 -97 41 -99 45 -4 5 123 69 333 165 l73 34 47 -65 47 -66 3 47 c2 29 -2
54 -12 69 -13 20 -13 24 -1 29 15 5 22 65 8 67 -96 8 -118 20 -149 80 l-23 47
72 30 c39 16 80 32 90 35 13 5 17 18 17 57 l0 50 -67 -5 c-38 -3 -107 -7 -154
-11 l-87 -5 -48 73 c-50 77 -243 338 -250 338 -2 0 1 -12 7 -27z m393 -610
c20 -25 36 -49 36 -53 0 -9 -26 -20 -304 -134 l-205 -85 -58 23 c-92 36 -140
64 -123 70 8 3 148 55 310 115 162 61 298 110 301 111 4 0 23 -21 43 -47z"/>
</g>
</svg>
