<?xml version="1.0" encoding="utf-8"?>
<!-- Generator: Adobe Illustrator 19.1.0, SVG Export Plug-In . SVG Version: 6.00 Build 0)  -->
<svg version="1.1" id="Ebene_1" xmlns="http://www.w3.org/2000/svg" xmlns:xlink="http://www.w3.org/1999/xlink" x="0px" y="0px"
	 viewBox="0 0 1000 1000" style="enable-background:new 0 0 1000 1000;" xml:space="preserve">
<style type="text/css">
	.st0{fill:#2C3C90;}
	.st1{fill:#FFFFFF;}
	.st2{fill:none;stroke:#FFFFFF;stroke-width:5;stroke-miterlimit:10;}
	.st3{fill:#FFFFFF;stroke:#52B369;stroke-miterlimit:10;}
	.st4{fill:none;stroke:#FFFFFF;stroke-width:4;stroke-miterlimit:10;}
	.st5{fill:#52B369;}
	.st6{fill:#FFFFFF;stroke:#52B369;stroke-width:6;}
	.st7{fill:#B9B9B9;stroke:#FFFFFF;stroke-width:6.000000e-002;stroke-linecap:square;stroke-linejoin:bevel;}
	.st8{fill:#53B36A;stroke:#FFFFFF;stroke-width:0.75;stroke-linecap:square;stroke-linejoin:bevel;}
	.st9{fill:none;stroke:#010202;stroke-width:3.000000e-002;stroke-linecap:square;stroke-linejoin:bevel;stroke-opacity:0.4667;}
	.st10{fill:#FFFFFF;stroke:#AFAFAF;stroke-width:6;stroke-miterlimit:10;}
	.st11{fill:#AFAFAF;}
	.st12{fill:#1F2243;}
	.st13{filter:url(#Adobe_OpacityMaskFilter);}
	.st14{opacity:0.5;mask:url(#SVGID_1_);}
	.st15{fill:#010202;}
	.st16{filter:url(#Adobe_OpacityMaskFilter_1_);}
	.st17{opacity:0.15;mask:url(#SVGID_2_);}
	.st18{fill:#C2C4D4;}
	.st19{filter:url(#Adobe_OpacityMaskFilter_2_);}
	.st20{opacity:0.3;mask:url(#SVGID_3_);}
	.st21{filter:url(#Adobe_OpacityMaskFilter_3_);}
	.st22{opacity:0.8;mask:url(#SVGID_4_);}
	.st23{filter:url(#Adobe_OpacityMaskFilter_4_);}
	.st24{opacity:0.8;mask:url(#SVGID_5_);}
	.st25{filter:url(#Adobe_OpacityMaskFilter_5_);}
	.st26{opacity:0.2;mask:url(#SVGID_6_);}
	.st27{filter:url(#Adobe_OpacityMaskFilter_6_);}
	.st28{opacity:0.8;mask:url(#SVGID_7_);}
</style>
<g>
	<path class="st0" d="M973.6,502.6c0,262.3-212.7,475-475,475c-262.3,0-475-212.7-475-475c0-262.3,212.7-475,475-475
		C760.9,27.6,973.6,240.3,973.6,502.6z"/>
	<path class="st1" d="M498.6,44.4c-253.1,0-458.3,205.2-458.3,458.3c0,253.1,205.2,458.3,458.3,458.3
		c253.1,0,458.3-205.2,458.3-458.3C956.8,249.5,751.6,44.4,498.6,44.4z M498.6,918.3C269,918.3,82.9,732.2,82.9,502.6
		C82.9,273.1,269,87,498.6,87c229.6,0,415.7,186.1,415.7,415.7C914.2,732.2,728.1,918.3,498.6,918.3z"/>
	<path class="st1" d="M573.5,470.7c-28.5-88.5-77.4-151.9-108.7-141.8c-5.2,1.7-9.5,5.3-13.8,10.7l0,0
		c-75.3,99.6-251.5,165.6-251.5,165.6c-15.3,4.9-16.1,43.8-2.2,86.9c13.9,43.1,37.9,74,53.1,69.1l0,0.1c0,0,12.3-4.3,35.7-9.1
		c12.2,15.1,46.5,60.5,54.2,100.6c2.7,14.2,26.6-9.6,28.7-19c2.6-11.4-28.5-60.7-46.3-87.8c51.9-7,130.4-11.1,231,2.9l0,0
		c5.3,1.6,10.3,1.8,15,0.2C600.1,639,602.1,559.2,573.5,470.7z M500.5,490.7c12.8,39.5,12.9,75.5,1,85.1
		c-11.9-19.6-23-44.2-31.8-71.6c-9.7-29.9-15.1-58.7-16.4-82.9C468.3,424,488.2,452.6,500.5,490.7z M346.3,612.1
		c-17.6,2.5-30.6,5.5-38.7,7.6c-9.3-12.5-18.4-30.6-25.2-51.6c-7.7-23.9-10.8-46.5-9.4-62.8c4.3-1.8,9.6-4.2,15.8-7
		c1.9-0.9,4-1.8,6-2.8c3.4-1.6,6.9-3.3,10.7-5.1c-0.1,0-0.1,0.1-0.2,0.1c40.5-20,99.6-54.1,135-96.9c-0.1,31.6,6.4,71.7,20,113.7
		c13.8,42.9,32.4,79.9,51.4,105.6C439.2,603.3,382.9,606.8,346.3,612.1z"/>
	<path class="st1" d="M624.5,452c12.5,35.9,14.6,71.2,7.7,97.7c18.5-23.2,23.1-63.5,9.1-103.6c-14-40.2-42.7-68.8-71.7-75.4
		C591.6,387.3,612,416.1,624.5,452z"/>
	<path class="st1" d="M689.7,431.1C708,483.5,711,534.9,701,573.7c27-33.8,33.7-92.6,13.2-151.1c-20.5-58.6-62.3-100.3-104.6-109.9
		C641.7,336.7,671.4,378.8,689.7,431.1z"/>
	<path class="st1" d="M750.1,402.5c25,71.6,29.2,142.1,15.4,195.1c37-46.3,46.2-126.7,18.1-206.8c-28-80.1-85.3-137.3-143.1-150.4
		C684.3,273.2,725,330.9,750.1,402.5z"/>
</g>
</svg>
