<?xml version="1.0" encoding="utf-8"?>
<!-- Generator: Adobe Illustrator 19.1.0, SVG Export Plug-In . SVG Version: 6.00 Build 0)  -->
<svg version="1.1" id="Ebene_1" xmlns="http://www.w3.org/2000/svg" xmlns:xlink="http://www.w3.org/1999/xlink" x="0px" y="0px"
	 viewBox="0 0 1000 1000" style="enable-background:new 0 0 1000 1000;" xml:space="preserve">
<style type="text/css">
	.st0{fill:#2C3C90;}
	.st1{fill:#FFFFFF;}
	.st2{fill:none;stroke:#FFFFFF;stroke-width:5;stroke-miterlimit:10;}
	.st3{fill:#FFFFFF;stroke:#52B369;stroke-miterlimit:10;}
	.st4{fill:none;stroke:#FFFFFF;stroke-width:4;stroke-miterlimit:10;}
	.st5{fill:#52B369;}
	.st6{fill:#FFFFFF;stroke:#52B369;stroke-width:6;}
	.st7{fill:#B9B9B9;stroke:#FFFFFF;stroke-width:6.000000e-002;stroke-linecap:square;stroke-linejoin:bevel;}
	.st8{fill:#53B36A;stroke:#FFFFFF;stroke-width:0.75;stroke-linecap:square;stroke-linejoin:bevel;}
	.st9{fill:none;stroke:#010202;stroke-width:3.000000e-002;stroke-linecap:square;stroke-linejoin:bevel;stroke-opacity:0.4667;}
	.st10{fill:#FFFFFF;stroke:#AFAFAF;stroke-width:6;stroke-miterlimit:10;}
	.st11{fill:#AFAFAF;}
	.st12{fill:#1F2243;}
	.st13{filter:url(#Adobe_OpacityMaskFilter);}
	.st14{opacity:0.5;mask:url(#SVGID_1_);}
	.st15{fill:#010202;}
	.st16{filter:url(#Adobe_OpacityMaskFilter_1_);}
	.st17{opacity:0.15;mask:url(#SVGID_2_);}
	.st18{fill:#C2C4D4;}
	.st19{filter:url(#Adobe_OpacityMaskFilter_2_);}
	.st20{opacity:0.3;mask:url(#SVGID_3_);}
	.st21{filter:url(#Adobe_OpacityMaskFilter_3_);}
	.st22{opacity:0.8;mask:url(#SVGID_4_);}
	.st23{filter:url(#Adobe_OpacityMaskFilter_4_);}
	.st24{opacity:0.8;mask:url(#SVGID_5_);}
	.st25{filter:url(#Adobe_OpacityMaskFilter_5_);}
	.st26{opacity:0.2;mask:url(#SVGID_6_);}
	.st27{filter:url(#Adobe_OpacityMaskFilter_6_);}
	.st28{opacity:0.8;mask:url(#SVGID_7_);}
</style>
<g>
	<circle class="st0" cx="500.1" cy="502.7" r="475"/>
	<path class="st1" d="M500.1,44.5C247,44.5,41.8,249.7,41.8,502.7C41.8,755.8,247,961,500.1,961c253.1,0,458.3-205.2,458.3-458.3
		C958.3,249.7,753.2,44.5,500.1,44.5z M500.1,918.4c-229.6,0-415.7-186.1-415.7-415.7c0-229.6,186.1-415.7,415.7-415.7
		c229.6,0,415.7,186.1,415.7,415.7C915.7,732.3,729.6,918.4,500.1,918.4z"/>
	<polygon class="st1" points="670.5,578 336,578 299.7,479 701.6,479 	"/>
	<rect x="382" y="586" class="st1" width="239" height="133"/>
	<g>
		<circle class="st1" cx="499.6" cy="302" r="51.3"/>
		<path class="st1" d="M550.9,367.5c-0.8,0-1.7,0.5-2.5,0.5h-28.5l-11.9,34.9l-2.8-34.9h-10.5l-2.8,34.9l-12-34.9h-29
			c-0.8,0-1.7-0.5-2.5-0.5c-28.3,0-50.8,22.4-50.8,50.7l0.6,53.8H438v-2.9l1.4-38.5c0,0,0.6-0.3,0.6-0.3c0-2.1,2-4,4.2-4
			c2.1,0,2.9,1.7,2.9,3.8l-1,39.6v2.3h103v-2.2l1.5-36.3c0-2.8,2-4.4,4.1-4.4c2.1,0,3.2,1.5,3.2,3.6l-0.7,36.5v2.9h43.5l1.8-53
			c0,0,0-0.6,0-0.9C602.2,389.7,579.3,367.5,550.9,367.5z"/>
	</g>
</g>
</svg>
