<?xml version="1.0" encoding="utf-8"?>
<!-- Generator: Adobe Illustrator 19.1.0, SVG Export Plug-In . SVG Version: 6.00 Build 0)  -->
<svg version="1.1" id="Ebene_1" xmlns="http://www.w3.org/2000/svg" xmlns:xlink="http://www.w3.org/1999/xlink" x="0px" y="0px"
	 viewBox="0 0 1000 1000" style="enable-background:new 0 0 1000 1000;" xml:space="preserve">
<style type="text/css">
	.st0{fill:#2C3C90;}
	.st1{fill:#FFFFFF;}
	.st2{fill:none;stroke:#FFFFFF;stroke-width:5;stroke-miterlimit:10;}
	.st3{fill:#FFFFFF;stroke:#52B369;stroke-miterlimit:10;}
	.st4{fill:none;stroke:#FFFFFF;stroke-width:4;stroke-miterlimit:10;}
	.st5{fill:#52B369;}
	.st6{fill:#FFFFFF;stroke:#52B369;stroke-width:6;}
	.st7{fill:#B9B9B9;stroke:#FFFFFF;stroke-width:6.000000e-002;stroke-linecap:square;stroke-linejoin:bevel;}
	.st8{fill:#53B36A;stroke:#FFFFFF;stroke-width:0.75;stroke-linecap:square;stroke-linejoin:bevel;}
	.st9{fill:none;stroke:#010202;stroke-width:3.000000e-002;stroke-linecap:square;stroke-linejoin:bevel;stroke-opacity:0.4667;}
	.st10{fill:#FFFFFF;stroke:#AFAFAF;stroke-width:6;stroke-miterlimit:10;}
	.st11{fill:#AFAFAF;}
	.st12{fill:#1F2243;}
	.st13{filter:url(#Adobe_OpacityMaskFilter);}
	.st14{opacity:0.5;mask:url(#SVGID_1_);}
	.st15{fill:#010202;}
	.st16{filter:url(#Adobe_OpacityMaskFilter_1_);}
	.st17{opacity:0.15;mask:url(#SVGID_2_);}
	.st18{fill:#C2C4D4;}
	.st19{filter:url(#Adobe_OpacityMaskFilter_2_);}
	.st20{opacity:0.3;mask:url(#SVGID_3_);}
	.st21{filter:url(#Adobe_OpacityMaskFilter_3_);}
	.st22{opacity:0.8;mask:url(#SVGID_4_);}
	.st23{filter:url(#Adobe_OpacityMaskFilter_4_);}
	.st24{opacity:0.8;mask:url(#SVGID_5_);}
	.st25{filter:url(#Adobe_OpacityMaskFilter_5_);}
	.st26{opacity:0.2;mask:url(#SVGID_6_);}
	.st27{filter:url(#Adobe_OpacityMaskFilter_6_);}
	.st28{opacity:0.8;mask:url(#SVGID_7_);}
</style>
<g>
	<path class="st0" d="M975.1,502.5c0,262.3-212.7,475-475,475c-262.3,0-475-212.7-475-475c0-262.3,212.7-475,475-475
		C762.4,27.5,975.1,240.1,975.1,502.5z"/>
	<path class="st1" d="M500.1,44.2C247,44.2,41.8,249.4,41.8,502.5c0,253.1,205.2,458.3,458.3,458.3s458.3-205.2,458.3-458.3
		C958.4,249.4,753.2,44.2,500.1,44.2z M500.1,918.2C270.5,918.2,84.4,732,84.4,502.5c0-229.6,186.1-415.7,415.7-415.7
		c229.6,0,415.7,186.1,415.7,415.7C915.8,732,729.7,918.2,500.1,918.2z"/>
	<path class="st3" d="M558.5,489.7l-33,33L646,643.3l0.5-0.5c0,0,0,0.1,0.1,0.2c4.3,4.3,15.2,0.2,24.5-9.1
		c9.3-9.3,13.5-20.1,9.2-24.4c-0.1-0.1-0.3-0.2-0.3-0.2l-0.9,0.9L558.5,489.7z"/>
	<path class="st3" d="M395.3,279.8l-79.7,79.7l287.7,287.7l1.1-1.1c0,0,0.1,0.3,0.4,0.6c10.2,10.2,36.1,0.4,58.1-21.6
		c22-22,31.9-47.8,21.7-57.9c-0.3-0.3-0.7-0.5-0.7-0.5l-0.9,0.9L395.3,279.8z"/>
	<path class="st3" d="M424.7,273.6c31.3,31.3,31.3,82.1,0,113.4c-31.3,31.3-82.1,31.3-113.4,0c-31.3-31.3-31.3-82.1,0-113.4
		C342.7,242.3,393.4,242.3,424.7,273.6z"/>
	<g>
		<path class="st3" d="M395,357.2c-31.2,31.2-68.1,44.8-82.8,30.6c31.4,30.5,81.5,30.2,112.5-0.8c30.9-30.9,31.3-80.7,1.2-112.1
			C439.5,289.8,425.9,326.3,395,357.2z"/>
	</g>
	<path class="st4" d="M671.1,633.9c0,0,11.8,50.2,47.8,47.2c36-2.9,48.6-21.4,58.3-5.8"/>
</g>
</svg>
