<?xml version="1.0" encoding="utf-8"?>
<!-- Generator: Adobe Illustrator 19.1.0, SVG Export Plug-In . SVG Version: 6.00 Build 0)  -->
<svg version="1.1" id="Ebene_1" xmlns="http://www.w3.org/2000/svg" xmlns:xlink="http://www.w3.org/1999/xlink" x="0px" y="0px"
	 viewBox="0 0 1000 1000" style="enable-background:new 0 0 1000 1000;" xml:space="preserve">
<style type="text/css">
	.st0{fill:#2C3C90;}
	.st1{fill:#FFFFFF;}
	.st2{fill:none;stroke:#FFFFFF;stroke-width:5;stroke-miterlimit:10;}
	.st3{fill:#FFFFFF;stroke:#52B369;stroke-miterlimit:10;}
	.st4{fill:none;stroke:#FFFFFF;stroke-width:4;stroke-miterlimit:10;}
	.st5{fill:#52B369;}
	.st6{fill:#FFFFFF;stroke:#52B369;stroke-width:6;}
	.st7{fill:#B9B9B9;stroke:#FFFFFF;stroke-width:6.000000e-002;stroke-linecap:square;stroke-linejoin:bevel;}
	.st8{fill:#53B36A;stroke:#FFFFFF;stroke-width:0.75;stroke-linecap:square;stroke-linejoin:bevel;}
	.st9{fill:none;stroke:#010202;stroke-width:3.000000e-002;stroke-linecap:square;stroke-linejoin:bevel;stroke-opacity:0.4667;}
	.st10{fill:#FFFFFF;stroke:#AFAFAF;stroke-width:6;stroke-miterlimit:10;}
	.st11{fill:#AFAFAF;}
	.st12{fill:#1F2243;}
	.st13{filter:url(#Adobe_OpacityMaskFilter);}
	.st14{opacity:0.5;mask:url(#SVGID_1_);}
	.st15{fill:#010202;}
	.st16{filter:url(#Adobe_OpacityMaskFilter_1_);}
	.st17{opacity:0.15;mask:url(#SVGID_2_);}
	.st18{fill:#C2C4D4;}
	.st19{filter:url(#Adobe_OpacityMaskFilter_2_);}
	.st20{opacity:0.3;mask:url(#SVGID_3_);}
	.st21{filter:url(#Adobe_OpacityMaskFilter_3_);}
	.st22{opacity:0.8;mask:url(#SVGID_4_);}
	.st23{filter:url(#Adobe_OpacityMaskFilter_4_);}
	.st24{opacity:0.8;mask:url(#SVGID_5_);}
	.st25{filter:url(#Adobe_OpacityMaskFilter_5_);}
	.st26{opacity:0.2;mask:url(#SVGID_6_);}
	.st27{filter:url(#Adobe_OpacityMaskFilter_6_);}
	.st28{opacity:0.8;mask:url(#SVGID_7_);}
</style>
<g>
	<circle class="st0" cx="500.1" cy="500.3" r="475"/>
	<path class="st1" d="M500.1,42.1C247,42.1,41.8,247.3,41.8,500.3c0,253.1,205.2,458.3,458.3,458.3s458.3-205.2,458.3-458.3
		C958.3,247.3,753.2,42.1,500.1,42.1z M500.1,916C270.5,916,84.4,729.9,84.4,500.3c0-229.6,186.1-415.7,415.7-415.7
		s415.7,186.1,415.7,415.7C915.7,729.9,729.6,916,500.1,916z"/>
	<path class="st1" d="M427.9,340H241c-18.2,0-34,15-34,33.2v111.5v34.1V618l117.4-66h103.4c18.2,0,35.1-14.9,35.1-33.1V373.2
		C463,355,446.1,340,427.9,340z"/>
	<path class="st1" d="M537.6,466h185.8c18.1,0,32.5,12.6,32.5,30.9v111.5v34.1v99.2L640.5,675H537.6c-18.1,0-34.6-14.2-34.6-32.5
		V496.9C503,478.6,519.5,466,537.6,466z"/>
	<g>
		<g>
			<path class="st2" d="M336,310.2c118.4-131.1,291.8-69.6,328,110.3"/>
			<g>
				<polygon class="st1" points="651,419.1 667.1,438.2 675.6,414.7 				"/>
			</g>
		</g>
	</g>
</g>
</svg>
