<?xml version="1.0" encoding="utf-8"?>
<!-- Generator: Adobe Illustrator 19.1.0, SVG Export Plug-In . SVG Version: 6.00 Build 0)  -->
<svg version="1.1" id="Ebene_1" xmlns="http://www.w3.org/2000/svg" xmlns:xlink="http://www.w3.org/1999/xlink" x="0px" y="0px"
	 viewBox="0 0 1000 1000" style="enable-background:new 0 0 1000 1000;" xml:space="preserve">
<style type="text/css">
	.st0{fill:#2C3C90;}
	.st1{fill:#FFFFFF;}
	.st2{fill:none;stroke:#FFFFFF;stroke-width:5;stroke-miterlimit:10;}
	.st3{fill:#FFFFFF;stroke:#52B369;stroke-miterlimit:10;}
	.st4{fill:none;stroke:#FFFFFF;stroke-width:4;stroke-miterlimit:10;}
	.st5{fill:#52B369;}
	.st6{fill:#FFFFFF;stroke:#52B369;stroke-width:6;}
	.st7{fill:#B9B9B9;stroke:#FFFFFF;stroke-width:6.000000e-002;stroke-linecap:square;stroke-linejoin:bevel;}
	.st8{fill:#53B36A;stroke:#FFFFFF;stroke-width:0.75;stroke-linecap:square;stroke-linejoin:bevel;}
	.st9{fill:none;stroke:#010202;stroke-width:3.000000e-002;stroke-linecap:square;stroke-linejoin:bevel;stroke-opacity:0.4667;}
	.st10{fill:#FFFFFF;stroke:#AFAFAF;stroke-width:6;stroke-miterlimit:10;}
	.st11{fill:#AFAFAF;}
	.st12{fill:#1F2243;}
	.st13{filter:url(#Adobe_OpacityMaskFilter);}
	.st14{opacity:0.5;mask:url(#SVGID_1_);}
	.st15{fill:#010202;}
	.st16{filter:url(#Adobe_OpacityMaskFilter_1_);}
	.st17{opacity:0.15;mask:url(#SVGID_2_);}
	.st18{fill:#C2C4D4;}
	.st19{filter:url(#Adobe_OpacityMaskFilter_2_);}
	.st20{opacity:0.3;mask:url(#SVGID_3_);}
	.st21{filter:url(#Adobe_OpacityMaskFilter_3_);}
	.st22{opacity:0.8;mask:url(#SVGID_4_);}
	.st23{filter:url(#Adobe_OpacityMaskFilter_4_);}
	.st24{opacity:0.8;mask:url(#SVGID_5_);}
	.st25{filter:url(#Adobe_OpacityMaskFilter_5_);}
	.st26{opacity:0.2;mask:url(#SVGID_6_);}
	.st27{filter:url(#Adobe_OpacityMaskFilter_6_);}
	.st28{opacity:0.8;mask:url(#SVGID_7_);}
</style>
<g>
	<circle class="st0" cx="500.4" cy="500" r="475"/>
	<path class="st1" d="M500.4,41.7C247.3,41.7,42.1,246.9,42.1,500c0,253.1,205.2,458.3,458.3,458.3S958.6,753.1,958.6,500
		C958.6,246.9,753.4,41.7,500.4,41.7z M500.4,915.7C270.8,915.7,84.7,729.5,84.7,500S270.8,84.3,500.4,84.3
		C729.9,84.3,916,270.4,916,500S729.9,915.7,500.4,915.7z"/>
	<path class="st1" d="M510.5,327.9c0,5.8-4.7,10.5-10.5,10.5c-5.8,0-10.5-4.7-10.5-10.5c0-5.8,4.7-10.5,10.5-10.5
		C505.7,317.3,510.5,322.1,510.5,327.9z"/>
	<path class="st1" d="M486.5,328.1c0.8,5.8-3.2,11.1-9,11.9c-5.8,0.8-11.1-3.2-11.9-9c-0.8-5.8,3.2-11.1,9-11.9
		C480.3,318.4,485.7,322.4,486.5,328.1z"/>
	<path class="st1" d="M462.8,331.7c1.6,5.6-1.6,11.4-7.2,13c-5.6,1.6-11.4-1.6-13-7.2c-1.6-5.6,1.6-11.4,7.2-13
		C455.3,322.9,461.2,326.1,462.8,331.7z"/>
	<path class="st1" d="M439.8,338.6c2.4,5.3,0,11.5-5.3,13.9c-5.3,2.4-11.5,0-13.9-5.3c-2.4-5.3,0-11.5,5.3-13.9
		C431.2,330.9,437.4,333.3,439.8,338.6z"/>
	<path class="st1" d="M418,348.6c3.1,4.9,1.6,11.4-3.3,14.5c-4.9,3.1-11.4,1.6-14.5-3.4c-3.1-4.9-1.6-11.4,3.4-14.5
		C408.4,342.2,414.9,343.7,418,348.6z"/>
	<path class="st1" d="M397.8,361.5c3.7,4.5,3.2,11.1-1.3,14.8c-4.5,3.7-11.1,3.1-14.8-1.3c-3.7-4.4-3.2-11.1,1.3-14.8
		C387.4,356.5,394,357.1,397.8,361.5z"/>
	<path class="st1" d="M379.6,377.1c4.3,3.9,4.7,10.6,0.8,14.9c-3.9,4.3-10.6,4.7-14.9,0.8c-4.3-3.9-4.7-10.6-0.8-14.9
		C368.6,373.6,375.3,373.3,379.6,377.1z"/>
	<path class="st1" d="M363.7,395.1c4.8,3.3,6.1,9.8,2.8,14.6c-3.3,4.8-9.8,6.1-14.6,2.8c-4.8-3.2-6.1-9.8-2.8-14.6
		C352.4,393.2,358.9,391.9,363.7,395.1z"/>
	<path class="st1" d="M350.5,415.2c5.2,2.6,7.4,8.9,4.9,14.1c-2.6,5.2-8.9,7.4-14.1,4.8c-5.2-2.5-7.4-8.9-4.9-14.1
		C339,414.8,345.3,412.6,350.5,415.2z"/>
	<path class="st1" d="M340.3,436.8c5.5,1.8,8.6,7.7,6.8,13.3c-1.8,5.5-7.7,8.6-13.3,6.8c-5.5-1.8-8.6-7.7-6.8-13.3
		C328.8,438.1,334.7,435.1,340.3,436.8z"/>
	<path class="st1" d="M333.1,459.7c5.7,1,9.6,6.5,8.5,12.2c-1,5.7-6.5,9.6-12.2,8.5c-5.7-1-9.6-6.5-8.5-12.2
		C321.9,462.6,327.4,458.7,333.1,459.7z"/>
	<path class="st1" d="M329.2,483.4c5.8,0.2,10.4,5.1,10.2,10.9c-0.2,5.8-5.1,10.4-10.9,10.2c-5.8-0.2-10.4-5.1-10.2-10.9
		C318.5,487.8,323.4,483.2,329.2,483.4z"/>
	<path class="st1" d="M672.2,503.6c-5.8,0.2-10.7-4.4-10.9-10.2c-0.2-5.8,4.4-10.7,10.2-10.9c5.8-0.2,10.7,4.4,10.9,10.2
		C682.6,498.5,678,503.4,672.2,503.6z"/>
	<path class="st1" d="M671.1,479.6c-5.7,1-11.2-2.8-12.2-8.5c-1-5.7,2.8-11.2,8.5-12.2c5.7-1,11.2,2.8,12.2,8.5
		C680.7,473.2,676.8,478.6,671.1,479.6z"/>
	<path class="st1" d="M666.7,456.1c-5.5,1.8-11.5-1.2-13.3-6.8c-1.8-5.5,1.2-11.5,6.8-13.3c5.5-1.8,11.5,1.2,13.3,6.8
		C675.3,448.3,672.2,454.3,666.7,456.1z"/>
	<path class="st1" d="M659,433.3c-5.2,2.5-11.5,0.4-14.1-4.9c-2.5-5.2-0.4-11.5,4.9-14.1c5.2-2.6,11.5-0.4,14.1,4.8
		C666.4,424.5,664.3,430.8,659,433.3z"/>
	<path class="st1" d="M648.3,411.9c-4.8,3.2-11.4,2-14.6-2.8c-3.2-4.8-2-11.4,2.8-14.6c4.8-3.3,11.4-2,14.6,2.8
		C654.4,402.1,653.1,408.6,648.3,411.9z"/>
	<path class="st1" d="M634.7,392.2c-4.3,3.9-11,3.5-14.9-0.8c-3.9-4.3-3.5-11,0.8-14.9c4.3-3.9,11-3.5,14.9,0.8
		C639.3,381.6,639,388.3,634.7,392.2z"/>
	<path class="st1" d="M618.4,374.5c-3.7,4.4-10.4,5-14.9,1.3c-4.4-3.7-5-10.4-1.3-14.8c3.7-4.5,10.4-5,14.8-1.3
		C621.6,363.4,622.1,370.1,618.4,374.5z"/>
	<path class="st1" d="M599.9,359.3c-3.1,4.9-9.6,6.4-14.5,3.4c-4.9-3.1-6.4-9.6-3.3-14.5c3.1-4.9,9.6-6.4,14.5-3.4
		C601.5,347.9,602.9,354.4,599.9,359.3z"/>
	<path class="st1" d="M579.4,346.8c-2.4,5.3-8.6,7.7-13.9,5.3c-5.3-2.4-7.7-8.6-5.3-13.9c2.4-5.3,8.6-7.7,13.9-5.4
		C579.4,335.3,581.7,341.5,579.4,346.8z"/>
	<path class="st1" d="M557.4,337.3c-1.6,5.6-7.4,8.8-13,7.2c-5.6-1.6-8.8-7.5-7.2-13c1.6-5.6,7.5-8.8,13-7.2
		C555.8,325.9,559,331.7,557.4,337.3z"/>
	<path class="st1" d="M534.2,330.9c-0.8,5.7-6.1,9.8-11.9,9c-5.8-0.8-9.8-6.2-9-11.9c0.8-5.8,6.1-9.8,11.9-9
		C531.1,319.9,535.1,325.2,534.2,330.9z"/>
	<circle class="st1" cx="499.9" cy="298.4" r="10.5"/>
	<path class="st1" d="M482.4,298.9c0.8,5.8-3.2,11.1-9,11.9c-5.8,0.8-11.1-3.2-11.9-9c-0.8-5.8,3.2-11.1,9-11.9
		C476.2,289.2,481.6,293.2,482.4,298.9z"/>
	<path class="st1" d="M454.6,303.4c1.6,5.6-1.6,11.4-7.2,13c-5.6,1.6-11.4-1.6-13-7.2c-1.6-5.6,1.6-11.4,7.2-13
		C447.2,294.6,453,297.8,454.6,303.4z"/>
	<path class="st1" d="M427.8,311.7c2.4,5.3,0,11.5-5.3,13.9c-5.3,2.4-11.5,0-13.9-5.3c-2.4-5.3,0-11.5,5.3-13.9
		C419.2,303.9,425.4,306.3,427.8,311.7z"/>
	<path class="st1" d="M402.4,323.6c3.1,4.9,1.6,11.4-3.4,14.5c-4.9,3.1-11.4,1.6-14.5-3.4c-3.1-4.9-1.6-11.4,3.4-14.5
		C392.8,317.1,399.3,318.7,402.4,323.6z"/>
	<path class="st1" d="M378.8,338.9c3.7,4.4,3.2,11.1-1.3,14.8c-4.5,3.7-11.1,3.2-14.8-1.3c-3.7-4.4-3.2-11.1,1.3-14.8
		C368.4,333.9,375.1,334.5,378.8,338.9z"/>
	<path class="st1" d="M357.7,357.4c4.3,3.9,4.7,10.5,0.8,14.9c-3.9,4.3-10.6,4.7-14.9,0.8c-4.3-3.9-4.7-10.6-0.8-14.9
		C346.7,353.9,353.3,353.5,357.7,357.4z"/>
	<path class="st1" d="M339.3,378.7c4.8,3.3,6.1,9.8,2.8,14.6c-3.3,4.8-9.8,6.1-14.6,2.8c-4.8-3.2-6.1-9.8-2.8-14.6
		C327.9,376.7,334.5,375.4,339.3,378.7z"/>
	<path class="st1" d="M324,402.2c5.2,2.5,7.4,8.9,4.8,14.1c-2.5,5.2-8.9,7.4-14.1,4.8c-5.2-2.5-7.4-8.9-4.8-14.1
		C312.5,401.9,318.8,399.7,324,402.2z"/>
	<path class="st1" d="M312.2,427.7c5.5,1.8,8.6,7.7,6.8,13.3c-1.8,5.5-7.7,8.6-13.3,6.8c-5.5-1.8-8.6-7.7-6.8-13.3
		C300.7,429,306.7,425.9,312.2,427.7z"/>
	<path class="st1" d="M304.1,454.6c5.7,1,9.6,6.5,8.5,12.2c-1,5.7-6.5,9.6-12.2,8.5c-5.7-1-9.5-6.5-8.5-12.2
		C292.9,457.4,298.3,453.6,304.1,454.6z"/>
	<path class="st1" d="M299.7,482.4c5.8,0.2,10.4,5.1,10.2,10.9c-0.2,5.8-5.1,10.4-10.9,10.2c-5.8-0.2-10.4-5.1-10.2-10.9
		C289,486.7,293.9,482.2,299.7,482.4z"/>
	<path class="st1" d="M701.7,502.6c-5.8,0.2-10.7-4.3-10.9-10.2c-0.2-5.8,4.4-10.7,10.2-10.9c5.8-0.2,10.7,4.4,10.9,10.2
		C712.1,497.5,707.5,502.4,701.7,502.6z"/>
	<path class="st1" d="M700.2,474.5c-5.7,1-11.2-2.8-12.2-8.5c-1-5.7,2.8-11.2,8.6-12.2c5.7-1,11.2,2.8,12.2,8.5
		C709.7,468,705.9,473.5,700.2,474.5z"/>
	<path class="st1" d="M694.7,447c-5.5,1.8-11.5-1.2-13.3-6.8c-1.8-5.5,1.2-11.5,6.8-13.3c5.5-1.8,11.5,1.2,13.3,6.8
		C703.3,439.2,700.3,445.1,694.7,447z"/>
	<path class="st1" d="M685.5,420.4c-5.2,2.5-11.5,0.4-14.1-4.9c-2.5-5.2-0.4-11.5,4.9-14.1c5.2-2.6,11.5-0.4,14.1,4.9
		C693,411.6,690.8,417.9,685.5,420.4z"/>
	<path class="st1" d="M672.7,395.4c-4.8,3.2-11.4,2-14.6-2.9c-3.2-4.8-2-11.4,2.8-14.6c4.8-3.3,11.4-2,14.6,2.9
		C678.8,385.6,677.5,392.1,672.7,395.4z"/>
	<path class="st1" d="M656.6,372.4c-4.3,3.9-11,3.5-14.9-0.8c-3.9-4.3-3.5-11,0.8-14.9c4.3-3.9,11-3.5,14.9,0.8
		C661.3,361.9,660.9,368.5,656.6,372.4z"/>
	<path class="st1" d="M637.4,351.9c-3.7,4.4-10.4,5-14.8,1.3c-4.5-3.7-5-10.4-1.3-14.8c3.7-4.5,10.4-5,14.8-1.3
		C640.5,340.8,641.1,347.5,637.4,351.9z"/>
	<path class="st1" d="M615.5,334.3c-3.1,4.9-9.6,6.4-14.5,3.3c-4.9-3.1-6.4-9.6-3.3-14.5c3.1-4.9,9.6-6.4,14.5-3.3
		C617.1,322.9,618.6,329.4,615.5,334.3z"/>
	<path class="st1" d="M591.4,319.9c-2.4,5.3-8.6,7.7-13.9,5.3c-5.3-2.4-7.7-8.6-5.3-13.9c2.4-5.3,8.6-7.7,13.9-5.3
		C591.4,308.3,593.7,314.6,591.4,319.9z"/>
	<path class="st1" d="M565.5,309c-1.6,5.6-7.4,8.8-13,7.2c-5.6-1.6-8.8-7.4-7.2-13c1.6-5.6,7.4-8.8,13-7.2
		C563.9,297.5,567.1,303.4,565.5,309z"/>
	<path class="st1" d="M538.4,301.8c-0.8,5.7-6.1,9.8-11.9,9c-5.8-0.8-9.8-6.1-9-11.9c0.8-5.8,6.1-9.8,11.9-9
		C535.2,290.7,539.1,296,538.4,301.8z"/>
	<path class="st1" d="M510.5,268.9c0,5.8-4.7,10.5-10.5,10.5c-5.8,0-10.5-4.7-10.5-10.5c0-5.8,4.7-10.5,10.5-10.5
		C505.7,258.3,510.5,263.1,510.5,268.9z"/>
	<circle class="st1" cx="475.8" cy="270.2" r="10.5"/>
	<path class="st1" d="M462.3,271.8c1.2,5.7-2.4,11.3-8.1,12.5c-5.7,1.2-11.3-2.4-12.5-8.1c-1.2-5.7,2.4-11.3,8.1-12.5
		C455.5,262.5,461.1,266.1,462.3,271.8z"/>
	<path class="st1" d="M438.7,277c1.8,5.5-1.2,11.5-6.8,13.3c-5.5,1.8-11.5-1.2-13.3-6.8c-1.8-5.5,1.2-11.5,6.8-13.3
		C431,268.5,436.9,271.5,438.7,277z"/>
	<path class="st1" d="M415.8,284.7c2.4,5.3,0,11.5-5.3,13.9c-5.3,2.4-11.5,0-13.9-5.3c-2.4-5.3,0-11.5,5.3-13.9
		C407.2,277,413.4,279.4,415.8,284.7z"/>
	<path class="st1" d="M393.8,294.7c2.9,5,1.2,11.5-3.9,14.4c-5,2.9-11.5,1.2-14.4-3.8c-2.9-5-1.2-11.5,3.9-14.4
		C384.4,288,390.9,289.7,393.8,294.7z"/>
	<path class="st1" d="M373,307c3.4,4.7,2.4,11.3-2.3,14.7c-4.7,3.4-11.3,2.4-14.7-2.3c-3.4-4.7-2.4-11.3,2.3-14.7
		C363,301.2,369.6,302.3,373,307z"/>
	<path class="st1" d="M353.6,321.3c3.9,4.3,3.5,11-0.8,14.9c-4.3,3.9-11,3.5-14.9-0.8c-3.9-4.3-3.5-11,0.8-14.9
		C343,316.7,349.7,317,353.6,321.3z"/>
	<path class="st1" d="M335.7,337.7c4.3,3.9,4.7,10.6,0.8,14.9c-3.9,4.3-10.6,4.7-14.9,0.8c-4.3-3.9-4.7-10.6-0.8-14.9
		C324.8,334.1,331.4,333.8,335.7,337.7z"/>
	<path class="st1" d="M319.7,355.8c4.7,3.4,5.8,10,2.3,14.7c-3.4,4.7-10,5.8-14.7,2.3c-4.7-3.4-5.8-10-2.3-14.7
		C308.4,353.4,315,352.3,319.7,355.8z"/>
	<path class="st1" d="M305.7,379.6c5,2.9,6.8,9.4,3.9,14.4c-2.9,5-9.4,6.8-14.4,3.9c-5-2.9-6.8-9.4-3.9-14.4
		C294.2,378.5,300.7,376.7,305.7,379.6z"/>
	<path class="st1" d="M293.8,400.7c5.3,2.4,7.7,8.6,5.3,13.9c-2.4,5.3-8.6,7.7-13.9,5.3c-5.3-2.4-7.7-8.6-5.3-13.9
		C282.2,400.7,288.5,398.3,293.8,400.7z"/>
	<path class="st1" d="M284.1,427c5.5,1.8,8.6,7.7,6.8,13.3c-1.8,5.5-7.7,8.6-13.3,6.8c-5.5-1.8-8.6-7.7-6.8-13.3
		C272.7,428.3,278.6,425.3,284.1,427z"/>
	<path class="st1" d="M276.9,454.3c5.7,1.2,9.3,6.8,8.1,12.5c-1.2,5.7-6.8,9.3-12.5,8.1c-5.7-1.2-9.3-6.8-8.1-12.5
		C265.6,456.7,271.2,453.1,276.9,454.3z"/>
	<path class="st1" d="M272.1,482.2c5.8,0.6,10,5.8,9.4,11.6c-0.6,5.8-5.8,10-11.6,9.4c-5.8-0.6-10-5.8-9.4-11.6
		C261.1,485.8,266.3,481.6,272.1,482.2z"/>
	<path class="st1" d="M730.8,502.3c-5.8,0.6-11-3.6-11.6-9.4c-0.6-5.8,3.6-11,9.4-11.6c5.8-0.6,11,3.6,11.6,9.4
		C740.7,496.5,736.5,501.7,730.8,502.3z"/>
	<path class="st1" d="M728,474.1c-5.7,1.2-11.3-2.4-12.5-8.1c-1.2-5.7,2.4-11.3,8.1-12.5c5.7-1.2,11.3,2.4,12.5,8.1
		C737.4,467.3,733.7,472.9,728,474.1z"/>
	<path class="st1" d="M722.8,450.5c-5.5,1.8-11.5-1.2-13.3-6.8c-1.8-5.5,1.2-11.5,6.8-13.3c5.5-1.8,11.5,1.2,13.3,6.8
		C731.4,442.7,728.3,448.7,722.8,450.5z"/>
	<path class="st1" d="M715.2,427.6c-5.3,2.4-11.6,0-13.9-5.3c-2.4-5.3,0-11.6,5.3-13.9c5.3-2.4,11.5,0,13.9,5.3
		C722.8,419,720.5,425.2,715.2,427.6z"/>
	<path class="st1" d="M709.3,401.4c-5.1,2.9-11.5,1.2-14.4-3.8c-2.9-5-1.2-11.5,3.9-14.4c5-2.9,11.5-1.2,14.4,3.8
		C716.1,392,714.4,398.5,709.3,401.4z"/>
	<path class="st1" d="M697.1,376.3c-4.7,3.4-11.3,2.4-14.7-2.3c-3.4-4.7-2.4-11.3,2.3-14.7c4.7-3.4,11.3-2.4,14.7,2.3
		C702.8,366.3,701.8,372.9,697.1,376.3z"/>
	<path class="st1" d="M678.5,356.9c-4.3,3.9-11,3.5-14.9-0.8c-3.9-4.3-3.6-11,0.8-14.9c4.3-3.9,11-3.5,14.9,0.8
		C683.2,346.4,682.8,353,678.5,356.9z"/>
	<path class="st1" d="M662.2,334.9c-3.9,4.3-10.6,4.7-14.9,0.8c-4.3-3.9-4.7-10.6-0.8-14.9c3.9-4.3,10.5-4.7,14.9-0.8
		C665.7,323.9,666.1,330.6,662.2,334.9z"/>
	<path class="st1" d="M644.1,318.9c-3.4,4.7-10,5.8-14.7,2.3c-4.7-3.4-5.8-10-2.3-14.7c3.4-4.7,10-5.8,14.7-2.3
		C646.5,307.6,647.5,314.2,644.1,318.9z"/>
	<path class="st1" d="M624.4,304.8c-2.9,5-9.4,6.8-14.4,3.9c-5-2.9-6.8-9.4-3.8-14.4c2.9-5,9.3-6.8,14.4-3.9
		C625.6,293.4,627.3,299.8,624.4,304.8z"/>
	<path class="st1" d="M603.4,292.9c-2.4,5.3-8.6,7.7-13.9,5.4c-5.3-2.4-7.7-8.6-5.3-13.9c2.4-5.3,8.6-7.7,13.9-5.3
		C603.4,281.4,605.8,287.6,603.4,292.9z"/>
	<path class="st1" d="M581.2,283.3c-1.8,5.5-7.8,8.6-13.3,6.8c-5.5-1.8-8.6-7.7-6.8-13.3c1.8-5.5,7.7-8.6,13.3-6.8
		C580,271.8,583,277.8,581.2,283.3z"/>
	<path class="st1" d="M558.2,276c-1.2,5.7-6.8,9.3-12.5,8.1c-5.7-1.2-9.3-6.8-8.1-12.5c1.2-5.7,6.8-9.3,12.5-8.1
		C555.8,264.7,559.4,270.3,558.2,276z"/>
	<path class="st1" d="M534.5,271.2c-0.6,5.8-5.8,10-11.6,9.4c-5.8-0.6-10-5.8-9.4-11.6c0.6-5.8,5.8-10,11.6-9.4
		C530.9,260.2,535.1,265.4,534.5,271.2z"/>
	<path class="st1" d="M510.5,239.4c0,5.8-4.7,10.5-10.5,10.5c-5.8,0-10.5-4.7-10.5-10.5c0-5.8,4.7-10.5,10.5-10.5
		C505.7,228.9,510.5,233.6,510.5,239.4z"/>
	<path class="st1" d="M487.8,239.5c0.5,5.8-3.8,10.9-9.6,11.4c-5.8,0.5-10.9-3.8-11.4-9.6c-0.5-5.8,3.8-10.9,9.6-11.4
		C482.1,229.4,487.2,233.7,487.8,239.5z"/>
	<path class="st1" d="M465.1,241.6c1,5.7-2.8,11.2-8.5,12.2c-5.7,1-11.2-2.8-12.2-8.5c-1-5.7,2.8-11.2,8.5-12.2
		C458.7,232,464.1,235.9,465.1,241.6z"/>
	<path class="st1" d="M442.8,245.6c1.5,5.6-1.8,11.4-7.5,12.9c-5.6,1.5-11.4-1.8-12.9-7.5c-1.5-5.6,1.8-11.4,7.4-12.9
		C435.5,236.7,441.3,240,442.8,245.6z"/>
	<path class="st1" d="M420.9,251.6c2,5.5-0.8,11.5-6.3,13.5c-5.5,2-11.5-0.8-13.5-6.3c-2-5.5,0.8-11.5,6.3-13.5
		C412.9,243.3,418.9,246.2,420.9,251.6z"/>
	<path class="st1" d="M399.6,259.5c2.5,5.3,0.2,11.5-5.1,14c-5.3,2.5-11.5,0.2-14-5.1c-2.5-5.3-0.2-11.5,5.1-14
		C390.9,251.9,397.1,254.2,399.6,259.5z"/>
	<path class="st1" d="M379.1,269.2c2.9,5,1.2,11.5-3.9,14.4c-5,2.9-11.5,1.2-14.4-3.9c-2.9-5-1.2-11.5,3.9-14.4
		C369.7,262.4,376.1,264.1,379.1,269.2z"/>
	<path class="st1" d="M359.4,280.6c3.3,4.8,2.2,11.3-2.6,14.7c-4.8,3.3-11.3,2.2-14.7-2.6c-3.3-4.8-2.2-11.3,2.6-14.7
		C349.5,274.7,356.1,275.9,359.4,280.6z"/>
	<path class="st1" d="M340.9,293.7c3.7,4.5,3.2,11.1-1.3,14.8c-4.5,3.7-11.1,3.2-14.8-1.3c-3.7-4.4-3.2-11.1,1.3-14.8
		C330.5,288.7,337.2,289.3,340.9,293.7z"/>
	<path class="st1" d="M323.6,308.4c4.1,4.1,4.1,10.8,0,14.9c-4.1,4.1-10.8,4.1-14.9,0c-4.1-4.1-4.1-10.8,0-14.9
		C312.8,304.3,319.5,304.3,323.6,308.4z"/>
	<path class="st1" d="M307.6,324.6c4.5,3.7,5,10.4,1.3,14.8c-3.7,4.5-10.4,5-14.8,1.3c-4.5-3.7-5-10.4-1.3-14.8
		C296.5,321.4,303.1,320.8,307.6,324.6z"/>
	<path class="st1" d="M293.1,346.2c4.8,3.3,5.9,9.9,2.6,14.7c-3.3,4.8-9.9,5.9-14.7,2.6c-4.8-3.3-5.9-9.9-2.6-14.7
		C281.7,344.1,288.3,342.9,293.1,346.2z"/>
	<path class="st1" d="M280.1,364.9c5,2.9,6.8,9.4,3.9,14.4c-2.9,5-9.4,6.8-14.4,3.9c-5-2.9-6.8-9.3-3.9-14.4
		C268.7,363.7,275.1,362,280.1,364.9z"/>
	<path class="st1" d="M268.9,384.6c5.3,2.5,7.6,8.7,5.1,14c-2.5,5.3-8.7,7.6-14,5.1c-5.3-2.5-7.6-8.7-5.1-14
		C257.3,384.4,263.6,382.2,268.9,384.6z"/>
	<path class="st1" d="M259.4,405.3c5.5,2,8.3,8,6.3,13.5c-2,5.5-8,8.3-13.5,6.3c-5.5-2-8.3-8-6.3-13.5
		C247.9,406.1,253.9,403.3,259.4,405.3z"/>
	<path class="st1" d="M251.7,426.6c5.6,1.5,9,7.3,7.4,12.9c-1.5,5.6-7.3,9-12.9,7.5c-5.6-1.5-9-7.3-7.4-12.9
		C240.3,428.5,246.1,425.1,251.7,426.6z"/>
	<path class="st1" d="M246,452.8c5.7,1,9.6,6.5,8.5,12.2c-1,5.7-6.5,9.6-12.2,8.5c-5.7-1-9.6-6.5-8.5-12.2
		C234.8,455.6,240.2,451.8,246,452.8z"/>
	<path class="st1" d="M242.1,479.4c5.8,0.5,10.1,5.6,9.6,11.4c-0.5,5.8-5.6,10.1-11.4,9.6c-5.8-0.5-10.1-5.6-9.6-11.4
		C231.2,483.2,236.3,478.9,242.1,479.4z"/>
	<path class="st1" d="M760.4,500.4c-6,0.5-11.4-3.9-11.9-10c-0.5-6,3.9-11.4,10-11.9c6-0.5,11.3,3.9,11.9,10
		C770.9,494.5,766.5,499.8,760.4,500.4z"/>
	<path class="st1" d="M758.3,472.7c-5.7,1-11.2-2.8-12.2-8.5c-1-5.7,2.8-11.2,8.5-12.2c5.7-1,11.2,2.8,12.2,8.5
		C767.8,466.2,764,471.7,758.3,472.7z"/>
	<path class="st1" d="M754.2,450.4c-5.6,1.5-11.4-1.8-12.9-7.4c-1.5-5.6,1.8-11.4,7.4-12.9c5.6-1.5,11.4,1.8,12.9,7.4
		C763.2,443.1,759.8,448.8,754.2,450.4z"/>
	<path class="st1" d="M748.2,428.5c-5.5,2-11.5-0.8-13.5-6.3c-2-5.5,0.8-11.5,6.3-13.5c5.5-2,11.5,0.8,13.5,6.3
		C756.5,420.4,753.7,426.5,748.2,428.5z"/>
	<path class="st1" d="M740.4,407.1c-5.3,2.5-11.5,0.2-14-5.1c-2.5-5.3-0.2-11.5,5.1-14c5.3-2.5,11.5-0.2,14,5.1
		C747.9,398.4,745.6,404.7,740.4,407.1z"/>
	<path class="st1" d="M730.7,382.4c-5,2.9-11.5,1.2-14.4-3.9c-2.9-5-1.2-11.5,3.9-14.4c5-2.9,11.5-1.2,14.4,3.9
		C737.4,373,735.7,379.5,730.7,382.4z"/>
	<path class="st1" d="M719.2,362.8c-4.8,3.3-11.3,2.2-14.7-2.6c-3.3-4.8-2.2-11.3,2.6-14.7c4.8-3.3,11.3-2.2,14.7,2.6
		C725.2,352.9,724,359.4,719.2,362.8z"/>
	<path class="st1" d="M706.1,344.3c-4.4,3.7-11.1,3.2-14.8-1.3c-3.7-4.4-3.2-11.1,1.3-14.8c4.5-3.7,11.1-3.1,14.8,1.3
		C711.2,333.9,710.5,340.5,706.1,344.3z"/>
	<path class="st1" d="M691.4,322.7c-4.1,4.1-10.8,4.1-14.9,0c-4.1-4.1-4.1-10.8,0-14.9c4.1-4.1,10.8-4.1,14.9,0
		C695.5,311.9,695.5,318.6,691.4,322.7z"/>
	<path class="st1" d="M675.3,306.7c-3.7,4.5-10.4,5.1-14.8,1.3c-4.4-3.7-5-10.4-1.3-14.8c3.7-4.5,10.4-5,14.8-1.3
		C678.5,295.6,679,302.3,675.3,306.7z"/>
	<path class="st1" d="M657.8,292.2c-3.3,4.8-9.9,5.9-14.7,2.6c-4.8-3.3-5.9-9.9-2.6-14.7c3.3-4.8,9.9-5.9,14.7-2.6
		C660,280.9,661.1,287.4,657.8,292.2z"/>
	<path class="st1" d="M639.2,279.3c-2.9,5-9.3,6.8-14.4,3.9c-5-2.9-6.8-9.4-3.9-14.4c2.9-5,9.4-6.8,14.4-3.9
		C640.3,267.8,642.1,274.2,639.2,279.3z"/>
	<path class="st1" d="M619.4,268c-2.4,5.3-8.7,7.6-14,5.1c-5.3-2.4-7.6-8.7-5.1-14c2.5-5.3,8.7-7.5,14-5.1
		C619.6,256.5,621.9,262.7,619.4,268z"/>
	<path class="st1" d="M598.8,258.5c-2,5.5-8,8.3-13.5,6.3c-5.5-2-8.3-8-6.3-13.5c2-5.5,8-8.3,13.5-6.3
		C598,247,600.8,253.1,598.8,258.5z"/>
	<path class="st1" d="M577.4,250.9c-1.5,5.6-7.3,9-12.9,7.5c-5.6-1.5-9-7.3-7.4-12.9c1.5-5.6,7.3-8.9,12.9-7.4
		C575.6,239.5,578.9,245.2,577.4,250.9z"/>
	<path class="st1" d="M555.5,245.1c-1,5.7-6.5,9.6-12.2,8.6c-5.7-1-9.6-6.5-8.5-12.2c1-5.7,6.5-9.5,12.2-8.5
		C552.7,233.9,556.5,239.4,555.5,245.1z"/>
	<path class="st1" d="M533.1,241.3c-0.5,5.8-5.6,10.1-11.4,9.6c-5.8-0.5-10.1-5.6-9.6-11.4c0.5-5.8,5.6-10.1,11.4-9.6
		C529.3,230.3,533.6,235.5,533.1,241.3z"/>
	<path class="st1" d="M510.5,209.9c0,5.8-4.7,10.5-10.5,10.5c-5.8,0-10.5-4.7-10.5-10.5c0-5.8,4.7-10.5,10.5-10.5
		C505.7,199.4,510.5,204.1,510.5,209.9z"/>
	<path class="st1" d="M470.1,211.3c0.8,5.8-3.2,11.1-9,11.9c-5.8,0.8-11.1-3.2-11.9-9c-0.8-5.8,3.2-11.1,9-11.9
		C463.9,201.5,469.2,205.5,470.1,211.3z"/>
	<path class="st1" d="M430.2,218.3c1.6,5.6-1.6,11.4-7.2,13c-5.6,1.6-11.4-1.6-13-7.2c-1.6-5.6,1.6-11.4,7.2-13
		C422.8,209.5,428.6,212.7,430.2,218.3z"/>
	<path class="st1" d="M391.8,230.8c2.4,5.3,0,11.5-5.3,13.9c-5.3,2.4-11.5,0-13.9-5.3c-2.4-5.3,0-11.5,5.3-13.9
		C383.2,223.1,389.4,225.5,391.8,230.8z"/>
	<path class="st1" d="M355.5,248.5c3.1,4.9,1.6,11.4-3.3,14.5c-4.9,3.1-11.4,1.6-14.5-3.4c-3.1-4.9-1.6-11.4,3.3-14.5
		C345.9,242.1,352.4,243.6,355.5,248.5z"/>
	<path class="st1" d="M321.9,271.1c3.7,4.5,3.2,11.1-1.3,14.8c-4.5,3.7-11.1,3.2-14.8-1.3c-3.7-4.5-3.2-11.1,1.3-14.8
		C311.6,266.1,318.2,266.7,321.9,271.1z"/>
	<path class="st1" d="M291.9,298.2c4.3,3.9,4.7,10.6,0.8,14.9c-3.9,4.3-10.6,4.7-14.9,0.8c-4.3-3.9-4.7-10.6-0.8-14.9
		C280.9,294.7,287.6,294.3,291.9,298.2z"/>
	<path class="st1" d="M265.9,329.2c4.8,3.3,6.1,9.8,2.8,14.6c-3.3,4.8-9.8,6.1-14.6,2.8c-4.8-3.2-6.1-9.8-2.8-14.6
		C254.5,327.2,261.1,325.9,265.9,329.2z"/>
	<path class="st1" d="M244.5,363.5c5.2,2.6,7.4,8.9,4.9,14.1c-2.6,5.2-8.9,7.4-14.1,4.9c-5.2-2.5-7.4-8.9-4.9-14.1
		C233,363.1,239.3,360.9,244.5,363.5z"/>
	<path class="st1" d="M228,400.4c5.5,1.8,8.6,7.7,6.8,13.3c-1.8,5.5-7.8,8.6-13.3,6.8c-5.5-1.8-8.6-7.7-6.8-13.3
		C216.6,401.6,222.5,398.6,228,400.4z"/>
	<path class="st1" d="M216.9,439.3c5.7,1,9.6,6.5,8.6,12.2c-1,5.7-6.5,9.6-12.2,8.5c-5.7-1-9.6-6.5-8.6-12.2
		C205.7,442.1,211.2,438.2,216.9,439.3z"/>
	<path class="st1" d="M211.3,479.3c5.8,0.2,10.4,5.1,10.2,10.9c-0.2,5.8-5.1,10.4-10.9,10.2c-5.8-0.2-10.4-5.1-10.2-10.9
		C200.6,483.6,205.5,479.1,211.3,479.3z"/>
	<path class="st1" d="M790.1,499.5c-5.8,0.2-10.7-4.3-10.9-10.2c-0.2-5.8,4.3-10.7,10.2-10.9c5.8-0.2,10.7,4.3,10.9,10.2
		C800.5,494.4,795.9,499.3,790.1,499.5z"/>
	<path class="st1" d="M787.3,459.2c-5.7,1-11.2-2.8-12.2-8.6c-1-5.7,2.8-11.2,8.5-12.2c5.7-1,11.2,2.8,12.2,8.5
		C796.9,452.7,793,458.1,787.3,459.2z"/>
	<path class="st1" d="M778.9,419.6c-5.5,1.8-11.5-1.2-13.3-6.8c-1.8-5.5,1.2-11.5,6.8-13.3c5.5-1.8,11.5,1.2,13.3,6.8
		C787.5,411.9,784.4,417.8,778.9,419.6z"/>
	<path class="st1" d="M765.1,381.6c-5.2,2.5-11.5,0.4-14.1-4.9c-2.6-5.2-0.4-11.5,4.8-14.1c5.2-2.6,11.5-0.4,14.1,4.8
		C772.5,372.8,770.3,379.1,765.1,381.6z"/>
	<path class="st1" d="M746.1,345.9c-4.8,3.3-11.4,2-14.6-2.8c-3.3-4.8-2-11.4,2.8-14.6c4.8-3.3,11.4-2,14.6,2.8
		C752.2,336.1,750.9,342.7,746.1,345.9z"/>
	<path class="st1" d="M722.3,313.2c-4.3,3.9-11,3.6-14.9-0.8c-3.9-4.3-3.5-11,0.8-14.9c4.3-3.9,11-3.6,14.9,0.8
		C727,302.7,726.7,309.3,722.3,313.2z"/>
	<path class="st1" d="M694.3,284.1c-3.7,4.5-10.4,5-14.8,1.3c-4.5-3.7-5-10.4-1.3-14.8c3.7-4.5,10.4-5,14.8-1.3
		C697.4,273,698,279.7,694.3,284.1z"/>
	<path class="st1" d="M662.4,259.3c-3.1,4.9-9.6,6.4-14.5,3.3c-4.9-3.1-6.4-9.6-3.4-14.5c3.1-4.9,9.6-6.4,14.5-3.4
		C664,247.8,665.5,254.3,662.4,259.3z"/>
	<path class="st1" d="M627.4,239c-2.4,5.3-8.6,7.7-13.9,5.3c-5.3-2.4-7.7-8.6-5.3-13.9c2.4-5.3,8.6-7.7,13.9-5.3
		C627.4,227.5,629.7,233.7,627.4,239z"/>
	<path class="st1" d="M589.9,223.9c-1.6,5.6-7.4,8.8-13,7.2c-5.6-1.6-8.8-7.4-7.2-13c1.6-5.6,7.4-8.8,13-7.2
		C588.3,212.5,591.5,218.3,589.9,223.9z"/>
	<path class="st1" d="M550.7,214.1c-0.8,5.8-6.1,9.8-11.9,9c-5.8-0.8-9.8-6.1-9-11.9c0.8-5.8,6.1-9.8,11.9-9
		C547.5,203,551.5,208.3,550.7,214.1z"/>
	<path class="st1" d="M510.5,176.2c0,5.8-4.7,10.5-10.5,10.5c-5.8,0-10.5-4.7-10.5-10.5c0-5.8,4.7-10.5,10.5-10.5
		C505.7,165.6,510.5,170.4,510.5,176.2z"/>
	<path class="st1" d="M465.4,177.9c0.8,5.8-3.2,11.1-9,11.9c-5.8,0.8-11.1-3.2-11.9-9c-0.8-5.8,3.2-11.1,9-11.9
		C459.2,168.1,464.6,172.2,465.4,177.9z"/>
	<path class="st1" d="M421,185.9c1.6,5.6-1.6,11.4-7.2,13c-5.6,1.6-11.4-1.6-13-7.2c-1.6-5.6,1.6-11.4,7.2-13
		C413.5,177.1,419.3,180.3,421,185.9z"/>
	<path class="st1" d="M378.1,200c2.4,5.3,0,11.5-5.3,13.9c-5.3,2.4-11.5,0-13.9-5.3c-2.4-5.3,0-11.5,5.3-13.9
		C369.5,192.3,375.7,194.7,378.1,200z"/>
	<path class="st1" d="M337.6,220c3.1,4.9,1.6,11.4-3.4,14.5c-4.9,3.1-11.4,1.6-14.5-3.4c-3.1-4.9-1.6-11.4,3.4-14.5
		C328,213.5,334.5,215,337.6,220z"/>
	<path class="st1" d="M300.3,245.3c3.7,4.4,3.2,11.1-1.3,14.8c-4.5,3.7-11.1,3.2-14.8-1.3c-3.7-4.4-3.2-11.1,1.3-14.8
		C289.9,240.3,296.5,240.9,300.3,245.3z"/>
	<path class="st1" d="M266.9,275.6c4.3,3.9,4.7,10.6,0.8,14.9c-3.9,4.3-10.6,4.7-14.9,0.8c-4.3-3.9-4.7-10.6-0.8-14.9
		C255.9,272.1,262.5,271.8,266.9,275.6z"/>
	<path class="st1" d="M238,310.3c4.8,3.3,6.1,9.8,2.8,14.6c-3.2,4.8-9.8,6.1-14.6,2.8c-4.8-3.2-6.1-9.8-2.8-14.6
		C226.6,308.3,233.2,307.1,238,310.3z"/>
	<path class="st1" d="M214.2,348.7c5.2,2.5,7.4,8.9,4.8,14.1c-2.5,5.2-8.9,7.4-14.1,4.8c-5.2-2.5-7.4-8.9-4.8-14.1
		C202.7,348.3,209,346.1,214.2,348.7z"/>
	<path class="st1" d="M196,390c5.5,1.8,8.6,7.7,6.8,13.3c-1.8,5.5-7.7,8.6-13.3,6.8c-5.5-1.8-8.6-7.7-6.8-13.3
		C184.5,391.2,190.5,388.2,196,390z"/>
	<path class="st1" d="M183.7,433.4c5.7,1,9.6,6.5,8.5,12.2c-1,5.7-6.5,9.6-12.2,8.5c-5.7-1-9.6-6.5-8.5-12.2
		C172.5,436.2,178,432.4,183.7,433.4z"/>
	<path class="st1" d="M177.6,478.1c5.8,0.2,10.4,5.1,10.2,10.9c-0.2,5.8-5.1,10.4-10.9,10.2c-5.8-0.2-10.4-5.1-10.2-10.9
		C166.9,482.5,171.8,477.9,177.6,478.1z"/>
	<path class="st1" d="M823.8,498.3c-5.8,0.2-10.7-4.4-10.9-10.2c-0.2-5.8,4.3-10.7,10.2-10.9c5.8-0.2,10.7,4.3,10.9,10.2
		C834.2,493.2,829.6,498.1,823.8,498.3z"/>
	<path class="st1" d="M820.5,453.3c-5.7,1-11.2-2.8-12.2-8.6c-1-5.7,2.8-11.2,8.5-12.2c5.7-1,11.2,2.8,12.2,8.5
		C830.1,446.8,826.2,452.3,820.5,453.3z"/>
	<path class="st1" d="M811,409.2c-5.5,1.8-11.5-1.2-13.3-6.8c-1.8-5.5,1.2-11.5,6.8-13.3c5.5-1.8,11.5,1.2,13.3,6.8
		C819.5,401.5,816.5,407.4,811,409.2z"/>
	<path class="st1" d="M795.4,366.9c-5.2,2.5-11.5,0.4-14.1-4.9c-2.6-5.2-0.4-11.5,4.9-14.1c5.2-2.6,11.5-0.4,14.1,4.8
		C802.8,358,800.6,364.3,795.4,366.9z"/>
	<path class="st1" d="M774.1,327.1c-4.8,3.2-11.4,2-14.6-2.8c-3.3-4.8-2-11.4,2.8-14.6c4.8-3.3,11.4-2,14.6,2.8
		C780.1,317.3,778.9,323.8,774.1,327.1z"/>
	<path class="st1" d="M747.4,290.7c-4.3,3.9-11,3.5-14.9-0.8c-3.9-4.3-3.5-11,0.8-14.9c4.3-3.9,11-3.6,14.9,0.8
		C752.1,280.1,751.7,286.8,747.4,290.7z"/>
	<path class="st1" d="M715.9,258.3c-3.8,4.5-10.4,5-14.9,1.3c-4.5-3.7-5-10.4-1.3-14.8c3.7-4.5,10.4-5.1,14.8-1.3
		C719.1,247.2,719.6,253.9,715.9,258.3z"/>
	<path class="st1" d="M680.3,230.7c-3.1,4.9-9.6,6.4-14.5,3.4c-4.9-3.1-6.4-9.6-3.3-14.5c3.1-4.9,9.6-6.4,14.5-3.3
		C681.8,219.2,683.3,225.7,680.3,230.7z"/>
	<path class="st1" d="M641.1,208.2c-2.4,5.3-8.6,7.7-13.9,5.3c-5.3-2.4-7.7-8.6-5.3-13.9c2.3-5.3,8.6-7.7,13.9-5.3
		C641.1,196.7,643.4,202.9,641.1,208.2z"/>
	<path class="st1" d="M599.2,191.5c-1.6,5.6-7.5,8.8-13,7.2c-5.6-1.6-8.8-7.4-7.2-13c1.6-5.6,7.4-8.8,13-7.2
		C597.6,180.1,600.8,185.9,599.2,191.5z"/>
	<path class="st1" d="M555.4,180.7c-0.8,5.8-6.1,9.8-11.9,9c-5.8-0.8-9.8-6.1-9-11.9c0.8-5.8,6.1-9.8,11.9-9
		C552.2,169.7,556.2,175,555.4,180.7z"/>
</g>
</svg>
